<svg width="24" height="24" viewBox="0 0 24 24" fill="none" xmlns="http://www.w3.org/2000/svg">
  <defs>
    <linearGradient id="brainGradient" x1="0%" y1="0%" x2="100%" y2="100%">
      <stop offset="0%" style="stop-color:#0066ff;stop-opacity:1" />
      <stop offset="100%" style="stop-color:#6366f1;stop-opacity:1" />
    </linearGradient>
  </defs>
  
  <!-- Brain outline -->
  <path d="M12 3C8.686 3 6 5.686 6 9c0 1.5.5 2.8 1.2 3.9C6.5 13.5 6 14.7 6 16c0 2.2 1.8 4 4 4h4c2.2 0 4-1.8 4-4 0-1.3-.5-2.5-1.2-3.1C17.5 11.8 18 10.5 18 9c0-3.314-2.686-6-6-6z" fill="url(#brainGradient)" fill-opacity="0.1" stroke="url(#brainGradient)" stroke-width="1.5"/>
  
  <!-- Neural network nodes -->
  <circle cx="9" cy="8" r="1.5" fill="url(#brainGradient)"/>
  <circle cx="15" cy="8" r="1.5" fill="url(#brainGradient)"/>
  <circle cx="12" cy="11" r="1.5" fill="url(#brainGradient)"/>
  <circle cx="9" cy="14" r="1.5" fill="url(#brainGradient)"/>
  <circle cx="15" cy="14" r="1.5" fill="url(#brainGradient)"/>
  
  <!-- Neural connections -->
  <line x1="9" y1="8" x2="12" y2="11" stroke="url(#brainGradient)" stroke-width="1" opacity="0.6"/>
  <line x1="15" y1="8" x2="12" y2="11" stroke="url(#brainGradient)" stroke-width="1" opacity="0.6"/>
  <line x1="12" y1="11" x2="9" y2="14" stroke="url(#brainGradient)" stroke-width="1" opacity="0.6"/>
  <line x1="12" y1="11" x2="15" y2="14" stroke="url(#brainGradient)" stroke-width="1" opacity="0.6"/>
  <line x1="9" y1="8" x2="15" y2="8" stroke="url(#brainGradient)" stroke-width="1" opacity="0.4"/>
  <line x1="9" y1="14" x2="15" y2="14" stroke="url(#brainGradient)" stroke-width="1" opacity="0.4"/>
</svg>