<svg width="24" height="24" viewBox="0 0 24 24" fill="none" xmlns="http://www.w3.org/2000/svg">
  <defs>
    <linearGradient id="rocketGradient" x1="0%" y1="0%" x2="100%" y2="100%">
      <stop offset="0%" style="stop-color:#10b981;stop-opacity:1" />
      <stop offset="100%" style="stop-color:#059669;stop-opacity:1" />
    </linearGradient>
  </defs>
  
  <!-- Rocket body -->
  <path d="M12 2l3 7-3 2-3-2 3-7z" fill="url(#rocketGradient)"/>
  <path d="M9 9v4c0 1 0.5 2 1.5 2.5L12 16l1.5-0.5c1-0.5 1.5-1.5 1.5-2.5V9l-3 2-3-2z" fill="url(#rocketGradient)" fill-opacity="0.8"/>
  
  <!-- Rocket fins -->
  <path d="M6 13l3-2v2l-2 2-1-2z" fill="url(#rocketGradient)" fill-opacity="0.6"/>
  <path d="M18 13l-3-2v2l2 2 1-2z" fill="url(#rocketGradient)" fill-opacity="0.6"/>
  
  <!-- Flames -->
  <path d="M10 16v3c0 1 1 2 2 2s2-1 2-2v-3l-2 1-2-1z" fill="#f59e0b" opacity="0.8"/>
  <path d="M11 17v2c0 0.5 0.5 1 1 1s1-0.5 1-1v-2l-1 0.5-1-0.5z" fill="#ef4444" opacity="0.9"/>
  
  <!-- Window -->
  <circle cx="12" cy="7" r="1.5" fill="white" fill-opacity="0.9"/>
  <circle cx="12" cy="7" r="1" fill="#0066ff" fill-opacity="0.3"/>
</svg>