<svg width="24" height="24" viewBox="0 0 24 24" fill="none" xmlns="http://www.w3.org/2000/svg">
  <defs>
    <linearGradient id="usersGradient" x1="0%" y1="0%" x2="100%" y2="100%">
      <stop offset="0%" style="stop-color:#6366f1;stop-opacity:1" />
      <stop offset="100%" style="stop-color:#8b5cf6;stop-opacity:1" />
    </linearGradient>
  </defs>
  
  <!-- User 1 -->
  <circle cx="9" cy="7" r="2.5" fill="url(#usersGradient)" fill-opacity="0.8"/>
  <path d="M4 17v2c0 0.5 0.5 1 1 1h8c0.5 0 1-0.5 1-1v-2c0-2-2-4-5-4s-5 2-5 4z" fill="url(#usersGradient)" fill-opacity="0.6"/>
  
  <!-- User 2 (overlapping) -->
  <circle cx="15" cy="7" r="2.5" fill="url(#usersGradient)" fill-opacity="0.9"/>
  <path d="M10 17v2c0 0.5 0.5 1 1 1h8c0.5 0 1-0.5 1-1v-2c0-2-2-4-5-4s-5 2-5 4z" fill="url(#usersGradient)" fill-opacity="0.7"/>
  
  <!-- Connection line -->
  <line x1="9" y1="12" x2="15" y2="12" stroke="url(#usersGradient)" stroke-width="1" opacity="0.4" stroke-dasharray="2,2"/>
</svg>