<svg width="300" height="200" viewBox="0 0 300 200" fill="none" xmlns="http://www.w3.org/2000/svg">
  <defs>
    <linearGradient id="aiCollabGradient1" x1="0%" y1="0%" x2="100%" y2="100%">
      <stop offset="0%" style="stop-color:#0066ff;stop-opacity:0.8" />
      <stop offset="100%" style="stop-color:#6366f1;stop-opacity:0.9" />
    </linearGradient>
    <linearGradient id="aiCollabGradient2" x1="0%" y1="0%" x2="100%" y2="100%">
      <stop offset="0%" style="stop-color:#10b981;stop-opacity:0.8" />
      <stop offset="100%" style="stop-color:#059669;stop-opacity:0.9" />
    </linearGradient>
    <filter id="glow">
      <feGaussianBlur stdDeviation="3" result="coloredBlur"/>
      <feMerge> 
        <feMergeNode in="coloredBlur"/>
        <feMergeNode in="SourceGraphic"/>
      </feMerge>
    </filter>
  </defs>
  
  <!-- Background circles -->
  <circle cx="80" cy="60" r="25" fill="url(#aiCollabGradient1)" opacity="0.1"/>
  <circle cx="220" cy="60" r="25" fill="url(#aiCollabGradient2)" opacity="0.1"/>
  <circle cx="150" cy="120" r="30" fill="url(#aiCollabGradient1)" opacity="0.08"/>
  
  <!-- AI Brain 1 -->
  <g transform="translate(55, 35)">
    <circle cx="25" cy="25" r="20" fill="url(#aiCollabGradient1)" opacity="0.2" stroke="url(#aiCollabGradient1)" stroke-width="2"/>
    <circle cx="20" cy="20" r="2" fill="url(#aiCollabGradient1)"/>
    <circle cx="30" cy="20" r="2" fill="url(#aiCollabGradient1)"/>
    <circle cx="25" cy="30" r="2" fill="url(#aiCollabGradient1)"/>
    <line x1="20" y1="20" x2="25" y2="30" stroke="url(#aiCollabGradient1)" stroke-width="1"/>
    <line x1="30" y1="20" x2="25" y2="30" stroke="url(#aiCollabGradient1)" stroke-width="1"/>
  </g>
  
  <!-- AI Brain 2 -->
  <g transform="translate(195, 35)">
    <circle cx="25" cy="25" r="20" fill="url(#aiCollabGradient2)" opacity="0.2" stroke="url(#aiCollabGradient2)" stroke-width="2"/>
    <circle cx="20" cy="20" r="2" fill="url(#aiCollabGradient2)"/>
    <circle cx="30" cy="20" r="2" fill="url(#aiCollabGradient2)"/>
    <circle cx="25" cy="30" r="2" fill="url(#aiCollabGradient2)"/>
    <line x1="20" y1="20" x2="25" y2="30" stroke="url(#aiCollabGradient2)" stroke-width="1"/>
    <line x1="30" y1="20" x2="25" y2="30" stroke="url(#aiCollabGradient2)" stroke-width="1"/>
  </g>
  
  <!-- Connection flow -->
  <path d="M105 60 Q150 40 195 60" stroke="url(#aiCollabGradient1)" stroke-width="2" fill="none" opacity="0.6" stroke-dasharray="5,5" filter="url(#glow)">
    <animate attributeName="stroke-dashoffset" values="0;-10" dur="2s" repeatCount="indefinite"/>
  </path>
  
  <!-- Data nodes flowing -->
  <circle cx="130" cy="50" r="3" fill="url(#aiCollabGradient1)" filter="url(#glow)">
    <animateMotion dur="3s" repeatCount="indefinite">
      <mpath href="#path1"/>
    </animateMotion>
  </circle>
  <path id="path1" d="M105 60 Q150 40 195 60" opacity="0"/>
  
  <!-- Central collaboration hub -->
  <g transform="translate(125, 95)">
    <circle cx="25" cy="25" r="25" fill="url(#aiCollabGradient1)" opacity="0.1" stroke="url(#aiCollabGradient1)" stroke-width="2"/>
    <rect x="15" y="15" width="20" height="15" rx="2" fill="url(#aiCollabGradient1)" opacity="0.8"/>
    <rect x="17" y="17" width="16" height="2" fill="white" opacity="0.9"/>
    <rect x="17" y="20" width="12" height="2" fill="white" opacity="0.7"/>
    <rect x="17" y="23" width="14" height="2" fill="white" opacity="0.8"/>
    <rect x="17" y="26" width="10" height="2" fill="white" opacity="0.6"/>
  </g>
  
  <!-- Connection lines to hub -->
  <line x1="80" y1="80" x2="125" y2="110" stroke="url(#aiCollabGradient1)" stroke-width="1.5" opacity="0.4"/>
  <line x1="220" y1="80" x2="175" y2="110" stroke="url(#aiCollabGradient2)" stroke-width="1.5" opacity="0.4"/>
  
  <!-- Floating particles -->
  <circle cx="50" cy="120" r="1.5" fill="url(#aiCollabGradient1)" opacity="0.6">
    <animate attributeName="cy" values="120;110;120" dur="4s" repeatCount="indefinite"/>
  </circle>
  <circle cx="250" cy="130" r="1" fill="url(#aiCollabGradient2)" opacity="0.7">
    <animate attributeName="cy" values="130;125;130" dur="3s" repeatCount="indefinite"/>
  </circle>
  <circle cx="100" cy="160" r="1.2" fill="url(#aiCollabGradient1)" opacity="0.5">
    <animate attributeName="cy" values="160;155;160" dur="5s" repeatCount="indefinite"/>
  </circle>
</svg>