<svg width="280" height="220" viewBox="0 0 280 220" fill="none" xmlns="http://www.w3.org/2000/svg">
  <defs>
    <linearGradient id="rocketBodyGradient" x1="0%" y1="0%" x2="100%" y2="100%">
      <stop offset="0%" style="stop-color:#10b981;stop-opacity:1" />
      <stop offset="100%" style="stop-color:#059669;stop-opacity:1" />
    </linearGradient>
    <linearGradient id="flameGradient" x1="0%" y1="0%" x2="100%" y2="100%">
      <stop offset="0%" style="stop-color:#f59e0b;stop-opacity:1" />
      <stop offset="50%" style="stop-color:#ef4444;stop-opacity:1" />
      <stop offset="100%" style="stop-color:#dc2626;stop-opacity:1" />
    </linearGradient>
    <filter id="rocketGlow">
      <feGaussianBlur stdDeviation="4" result="coloredBlur"/>
      <feMerge> 
        <feMergeNode in="coloredBlur"/>
        <feMergeNode in="SourceGraphic"/>
      </feMerge>
    </filter>
  </defs>
  
  <!-- Stars background -->
  <circle cx="50" cy="30" r="1" fill="#fbbf24" opacity="0.8">
    <animate attributeName="opacity" values="0.8;0.4;0.8" dur="3s" repeatCount="indefinite"/>
  </circle>
  <circle cx="230" cy="45" r="1.5" fill="#fbbf24" opacity="0.6">
    <animate attributeName="opacity" values="0.6;0.9;0.6" dur="4s" repeatCount="indefinite"/>
  </circle>
  <circle cx="70" cy="70" r="0.8" fill="#fbbf24" opacity="0.7">
    <animate attributeName="opacity" values="0.7;0.3;0.7" dur="2.5s" repeatCount="indefinite"/>
  </circle>
  <circle cx="200" cy="20" r="1.2" fill="#fbbf24" opacity="0.9">
    <animate attributeName="opacity" values="0.9;0.5;0.9" dur="3.5s" repeatCount="indefinite"/>
  </circle>
  
  <!-- Rocket body -->
  <g transform="translate(120, 50)" filter="url(#rocketGlow)">
    <!-- Main body -->
    <ellipse cx="20" cy="40" rx="15" ry="35" fill="url(#rocketBodyGradient)"/>
    
    <!-- Nose cone -->
    <path d="M5 15 Q20 5 35 15 L25 35 L15 35 Z" fill="url(#rocketBodyGradient)" opacity="0.9"/>
    
    <!-- Body details -->
    <rect x="10" y="25" width="20" height="3" fill="white" opacity="0.3" rx="1.5"/>
    <rect x="12" y="35" width="16" height="2" fill="white" opacity="0.2" rx="1"/>
    <rect x="14" y="45" width="12" height="2" fill="white" opacity="0.25" rx="1"/>
    
    <!-- Window -->
    <circle cx="20" cy="20" r="4" fill="white" opacity="0.9"/>
    <circle cx="20" cy="20" r="3" fill="#0066ff" opacity="0.3"/>
    <circle cx="21" cy="19" r="1" fill="white" opacity="0.8"/>
    
    <!-- Side fins -->
    <path d="M5 55 L2 70 L12 60 Z" fill="url(#rocketBodyGradient)" opacity="0.8"/>
    <path d="M35 55 L38 70 L28 60 Z" fill="url(#rocketBodyGradient)" opacity="0.8"/>
  </g>
  
  <!-- Rocket flames -->
  <g transform="translate(132, 125)">
    <path d="M8 0 Q15 10 8 20 Q0 15 0 10 Q0 5 8 0" fill="url(#flameGradient)" opacity="0.9">
      <animateTransform attributeName="transform" type="scale" values="1;1.2;1" dur="0.5s" repeatCount="indefinite"/>
    </path>
    <path d="M6 5 Q10 12 6 18 Q2 15 2 10 Q2 7 6 5" fill="#fbbf24" opacity="0.8">
      <animateTransform attributeName="transform" type="scale" values="1;1.1;1" dur="0.6s" repeatCount="indefinite"/>
    </path>
    <path d="M4 8 Q6 13 4 16 Q2 14 2 12 Q2 10 4 8" fill="white" opacity="0.6">
      <animateTransform attributeName="transform" type="scale" values="1;1.3;1" dur="0.4s" repeatCount="indefinite"/>
    </path>
  </g>
  
  <!-- Productivity elements floating around -->
  <g transform="translate(60, 90)">
    <rect x="0" y="0" width="12" height="8" rx="2" fill="#0066ff" opacity="0.7">
      <animateTransform attributeName="transform" type="translate" values="0,0; -5,-5; 0,0" dur="4s" repeatCount="indefinite"/>
    </rect>
    <rect x="2" y="2" width="8" height="1" fill="white" opacity="0.8"/>
    <rect x="2" y="4" width="6" height="1" fill="white" opacity="0.6"/>
  </g>
  
  <g transform="translate(190, 110)">
    <circle cx="6" cy="6" r="6" fill="#10b981" opacity="0.7">
      <animateTransform attributeName="transform" type="translate" values="0,0; 3,-3; 0,0" dur="3.5s" repeatCount="indefinite"/>
    </circle>
    <path d="M3 6 L5 8 L9 4" stroke="white" stroke-width="1.5" stroke-linecap="round" stroke-linejoin="round"/>
  </g>
  
  <g transform="translate(80, 140)">
    <rect x="0" y="0" width="10" height="10" rx="2" fill="#f59e0b" opacity="0.6">
      <animateTransform attributeName="transform" type="translate" values="0,0; -2,3; 0,0" dur="5s" repeatCount="indefinite"/>
    </rect>
    <rect x="2" y="2" width="6" height="2" fill="white" opacity="0.9"/>
    <rect x="2" y="5" width="4" height="1" fill="white" opacity="0.7"/>
  </g>
  
  <!-- Speed lines -->
  <line x1="30" y1="80" x2="50" y2="85" stroke="#0066ff" stroke-width="2" opacity="0.3">
    <animate attributeName="opacity" values="0.3;0.1;0.3" dur="1s" repeatCount="indefinite"/>
  </line>
  <line x1="240" y1="120" x2="260" y2="125" stroke="#0066ff" stroke-width="1.5" opacity="0.4">
    <animate attributeName="opacity" values="0.4;0.1;0.4" dur="1.2s" repeatCount="indefinite"/>
  </line>
  <line x1="35" y1="110" x2="55" y2="115" stroke="#10b981" stroke-width="1.8" opacity="0.3">
    <animate attributeName="opacity" values="0.3;0.1;0.3" dur="0.8s" repeatCount="indefinite"/>
  </line>
</svg>