<svg width="260" height="180" viewBox="0 0 260 180" fill="none" xmlns="http://www.w3.org/2000/svg">
  <defs>
    <linearGradient id="cloudGradient" x1="0%" y1="0%" x2="100%" y2="100%">
      <stop offset="0%" style="stop-color:#0066ff;stop-opacity:0.8" />
      <stop offset="100%" style="stop-color:#6366f1;stop-opacity:0.9" />
    </linearGradient>
    <linearGradient id="shieldGradient" x1="0%" y1="0%" x2="100%" y2="100%">
      <stop offset="0%" style="stop-color:#22c55e;stop-opacity:1" />
      <stop offset="100%" style="stop-color:#16a34a;stop-opacity:1" />
    </linearGradient>
    <filter id="cloudGlow">
      <feGaussianBlur stdDeviation="2" result="coloredBlur"/>
      <feMerge> 
        <feMergeNode in="coloredBlur"/>
        <feMergeNode in="SourceGraphic"/>
      </feMerge>
    </filter>
  </defs>
  
  <!-- Main cloud -->
  <g transform="translate(50, 60)" filter="url(#cloudGlow)">
    <path d="M30 40 Q10 40 10 20 Q10 5 25 5 Q35 0 45 5 Q60 5 60 20 Q60 35 45 35 L35 35 Q30 40 30 40" fill="url(#cloudGradient)" opacity="0.3"/>
    <path d="M30 38 Q12 38 12 22 Q12 8 25 8 Q33 3 42 8 Q55 8 55 22 Q55 33 42 33 L35 33 Q30 38 30 38" fill="url(#cloudGradient)" opacity="0.6"/>
  </g>
  
  <!-- Secondary clouds -->
  <g transform="translate(150, 45)" opacity="0.4">
    <path d="M20 25 Q5 25 5 12 Q5 3 15 3 Q22 0 28 3 Q38 3 38 12 Q38 22 28 22 L25 22 Q20 25 20 25" fill="url(#cloudGradient)" opacity="0.5"/>
  </g>
  
  <g transform="translate(20, 30)" opacity="0.3">
    <path d="M15 20 Q5 20 5 10 Q5 2 12 2 Q17 0 22 2 Q30 2 30 10 Q30 18 22 18 L20 18 Q15 20 15 20" fill="url(#cloudGradient)" opacity="0.4"/>
  </g>
  
  <!-- Central shield -->
  <g transform="translate(110, 75)">
    <path d="M20 5 L5 12 L5 25 Q5 35 20 40 Q35 35 35 25 L35 12 L20 5" fill="url(#shieldGradient)" opacity="0.2" stroke="url(#shieldGradient)" stroke-width="2"/>
    <path d="M20 8 L8 14 L8 25 Q8 32 20 36 Q32 32 32 25 L32 14 L20 8" fill="url(#shieldGradient)" opacity="0.8"/>
    
    <!-- Checkmark -->
    <path d="M14 22 L18 26 L26 18" stroke="white" stroke-width="2.5" stroke-linecap="round" stroke-linejoin="round"/>
  </g>
  
  <!-- Data encryption symbols -->
  <g transform="translate(70, 110)">
    <rect x="0" y="0" width="8" height="6" rx="1" fill="#0066ff" opacity="0.6"/>
    <circle cx="4" cy="3" r="1.5" fill="white" opacity="0.9"/>
    <rect x="2.5" y="2" width="3" height="2" fill="#0066ff"/>
  </g>
  
  <g transform="translate(160, 115)">
    <rect x="0" y="0" width="8" height="6" rx="1" fill="#0066ff" opacity="0.7"/>
    <circle cx="4" cy="3" r="1.5" fill="white" opacity="0.9"/>
    <rect x="2.5" y="2" width="3" height="2" fill="#0066ff"/>
  </g>
  
  <!-- Data streams -->
  <g opacity="0.6">
    <line x1="78" y1="113" x2="110" y2="95" stroke="#0066ff" stroke-width="1.5" stroke-dasharray="3,3">
      <animate attributeName="stroke-dashoffset" values="0;-6" dur="2s" repeatCount="indefinite"/>
    </line>
    <line x1="160" y1="118" x2="130" y2="100" stroke="#0066ff" stroke-width="1.5" stroke-dasharray="3,3">
      <animate attributeName="stroke-dashoffset" values="0;-6" dur="2.5s" repeatCount="indefinite"/>
    </line>
  </g>
  
  <!-- Floating data packets -->
  <circle cx="90" cy="105" r="2" fill="#0066ff" opacity="0.8">
    <animateMotion dur="4s" repeatCount="indefinite">
      <mpath href="#dataPath1"/>
    </animateMotion>
  </circle>
  <path id="dataPath1" d="M78 113 L110 95" opacity="0"/>
  
  <circle cx="150" cy="115" r="1.5" fill="#6366f1" opacity="0.7">
    <animateMotion dur="3s" repeatCount="indefinite">
      <mpath href="#dataPath2"/>
    </animateMotion>
  </circle>
  <path id="dataPath2" d="M160 118 L130 100" opacity="0"/>
  
  <!-- Security indicators -->
  <g transform="translate(40, 140)">
    <rect x="0" y="0" width="12" height="8" rx="2" fill="#22c55e" opacity="0.8"/>
    <rect x="2" y="2" width="8" height="1" fill="white" opacity="0.9"/>
    <rect x="2" y="4" width="6" height="1" fill="white" opacity="0.7"/>
    <circle cx="10" cy="2" r="1" fill="#16a34a"/>
  </g>
  
  <g transform="translate(170, 135)">
    <rect x="0" y="0" width="12" height="8" rx="2" fill="#22c55e" opacity="0.7"/>
    <rect x="2" y="2" width="8" height="1" fill="white" opacity="0.9"/>
    <rect x="2" y="4" width="6" height="1" fill="white" opacity="0.7"/>
    <circle cx="10" cy="2" r="1" fill="#16a34a"/>
  </g>
</svg>