<svg width="600" height="400" viewBox="0 0 600 400" fill="none" xmlns="http://www.w3.org/2000/svg">
  <defs>
    <linearGradient id="gridGradient" x1="0%" y1="0%" x2="100%" y2="100%">
      <stop offset="0%" style="stop-color:#0066ff;stop-opacity:0.08" />
      <stop offset="50%" style="stop-color:#6366f1;stop-opacity:0.04" />
      <stop offset="100%" style="stop-color:#8b5cf6;stop-opacity:0.08" />
    </linearGradient>
    <pattern id="hexPattern" x="0" y="0" width="60" height="52" patternUnits="userSpaceOnUse">
      <polygon points="30,4 52,16 52,36 30,48 8,36 8,16" 
               fill="none" 
               stroke="url(#gridGradient)" 
               stroke-width="1" 
               opacity="0.3"/>
    </pattern>
  </defs>
  
  <!-- Hexagonal grid background -->
  <rect width="600" height="400" fill="url(#hexPattern)"/>
  
  <!-- Highlighted elements -->
  <g opacity="0.6">
    <!-- Central focal point -->
    <polygon points="300,150 322,162 322,182 300,194 278,182 278,162" 
             fill="none" 
             stroke="#0066ff" 
             stroke-width="2" 
             opacity="0.8"/>
    
    <!-- Surrounding elements -->
    <polygon points="240,118 262,130 262,150 240,162 218,150 218,130" 
             fill="none" 
             stroke="#6366f1" 
             stroke-width="1.5" 
             opacity="0.6"/>
    
    <polygon points="360,118 382,130 382,150 360,162 338,150 338,130" 
             fill="none" 
             stroke="#6366f1" 
             stroke-width="1.5" 
             opacity="0.6"/>
    
    <polygon points="240,214 262,226 262,246 240,258 218,246 218,226" 
             fill="none" 
             stroke="#8b5cf6" 
             stroke-width="1.5" 
             opacity="0.5"/>
    
    <polygon points="360,214 382,226 382,246 360,258 338,246 338,226" 
             fill="none" 
             stroke="#8b5cf6" 
             stroke-width="1.5" 
             opacity="0.5"/>
  </g>
  
  <!-- Animated pulse effect -->
  <g>
    <circle cx="300" cy="176" r="8" fill="#0066ff" opacity="0.3">
      <animate attributeName="r" values="8;16;8" dur="2s" repeatCount="indefinite"/>
      <animate attributeName="opacity" values="0.3;0.1;0.3" dur="2s" repeatCount="indefinite"/>
    </circle>
  </g>
</svg>