<svg width="800" height="600" viewBox="0 0 800 600" fill="none" xmlns="http://www.w3.org/2000/svg">
  <defs>
    <linearGradient id="neuralGradient" x1="0%" y1="0%" x2="100%" y2="100%">
      <stop offset="0%" style="stop-color:#0066ff;stop-opacity:0.1" />
      <stop offset="50%" style="stop-color:#6366f1;stop-opacity:0.05" />
      <stop offset="100%" style="stop-color:#8b5cf6;stop-opacity:0.1" />
    </linearGradient>
    <filter id="glow">
      <feGaussianBlur stdDeviation="2" result="coloredBlur"/>
      <feMerge> 
        <feMergeNode in="coloredBlur"/>
        <feMergeNode in="SourceGraphic"/>
      </feMerge>
    </filter>
  </defs>
  
  <!-- Background nodes -->
  <g opacity="0.6">
    <!-- Layer 1 -->
    <circle cx="100" cy="150" r="4" fill="#0066ff" opacity="0.3"/>
    <circle cx="100" cy="250" r="4" fill="#0066ff" opacity="0.3"/>
    <circle cx="100" cy="350" r="4" fill="#0066ff" opacity="0.3"/>
    <circle cx="100" cy="450" r="4" fill="#0066ff" opacity="0.3"/>
    
    <!-- Layer 2 -->
    <circle cx="250" cy="100" r="4" fill="#6366f1" opacity="0.4"/>
    <circle cx="250" cy="200" r="4" fill="#6366f1" opacity="0.4"/>
    <circle cx="250" cy="300" r="4" fill="#6366f1" opacity="0.4"/>
    <circle cx="250" cy="400" r="4" fill="#6366f1" opacity="0.4"/>
    <circle cx="250" cy="500" r="4" fill="#6366f1" opacity="0.4"/>
    
    <!-- Layer 3 -->
    <circle cx="400" cy="120" r="4" fill="#8b5cf6" opacity="0.5"/>
    <circle cx="400" cy="200" r="4" fill="#8b5cf6" opacity="0.5"/>
    <circle cx="400" cy="280" r="4" fill="#8b5cf6" opacity="0.5"/>
    <circle cx="400" cy="360" r="4" fill="#8b5cf6" opacity="0.5"/>
    <circle cx="400" cy="440" r="4" fill="#8b5cf6" opacity="0.5"/>
    
    <!-- Layer 4 -->
    <circle cx="550" cy="180" r="4" fill="#a855f7" opacity="0.6"/>
    <circle cx="550" cy="280" r="4" fill="#a855f7" opacity="0.6"/>
    <circle cx="550" cy="380" r="4" fill="#a855f7" opacity="0.6"/>
    
    <!-- Output layer -->
    <circle cx="700" cy="280" r="6" fill="#c084fc" opacity="0.8" filter="url(#glow)"/>
  </g>
  
  <!-- Connection lines -->
  <g opacity="0.2">
    <!-- Layer 1 to Layer 2 connections -->
    <line x1="100" y1="150" x2="250" y2="100" stroke="#0066ff" stroke-width="1"/>
    <line x1="100" y1="150" x2="250" y2="200" stroke="#0066ff" stroke-width="1"/>
    <line x1="100" y1="250" x2="250" y2="200" stroke="#0066ff" stroke-width="1"/>
    <line x1="100" y1="250" x2="250" y2="300" stroke="#0066ff" stroke-width="1"/>
    <line x1="100" y1="350" x2="250" y2="300" stroke="#0066ff" stroke-width="1"/>
    <line x1="100" y1="350" x2="250" y2="400" stroke="#0066ff" stroke-width="1"/>
    <line x1="100" y1="450" x2="250" y2="400" stroke="#0066ff" stroke-width="1"/>
    <line x1="100" y1="450" x2="250" y2="500" stroke="#0066ff" stroke-width="1"/>
    
    <!-- Layer 2 to Layer 3 connections -->
    <line x1="250" y1="100" x2="400" y2="120" stroke="#6366f1" stroke-width="1"/>
    <line x1="250" y1="200" x2="400" y2="200" stroke="#6366f1" stroke-width="1"/>
    <line x1="250" y1="300" x2="400" y2="280" stroke="#6366f1" stroke-width="1"/>
    <line x1="250" y1="400" x2="400" y2="360" stroke="#6366f1" stroke-width="1"/>
    <line x1="250" y1="500" x2="400" y2="440" stroke="#6366f1" stroke-width="1"/>
    
    <!-- Layer 3 to Layer 4 connections -->
    <line x1="400" y1="200" x2="550" y2="180" stroke="#8b5cf6" stroke-width="1"/>
    <line x1="400" y1="280" x2="550" y2="280" stroke="#8b5cf6" stroke-width="1"/>
    <line x1="400" y1="360" x2="550" y2="380" stroke="#8b5cf6" stroke-width="1"/>
    
    <!-- Layer 4 to Output connections -->
    <line x1="550" y1="180" x2="700" y2="280" stroke="#a855f7" stroke-width="2"/>
    <line x1="550" y1="280" x2="700" y2="280" stroke="#a855f7" stroke-width="2"/>
    <line x1="550" y1="380" x2="700" y2="280" stroke="#a855f7" stroke-width="2"/>
  </g>
  
  <!-- Animated data flow -->
  <g>
    <circle r="2" fill="#0066ff" opacity="0.8">
      <animateMotion dur="3s" repeatCount="indefinite">
        <path d="M100,250 L250,200 L400,280 L550,280 L700,280"/>
      </animateMotion>
    </circle>
    <circle r="2" fill="#6366f1" opacity="0.6">
      <animateMotion dur="4s" repeatCount="indefinite" begin="1s">
        <path d="M100,350 L250,400 L400,360 L550,380 L700,280"/>
      </animateMotion>
    </circle>
  </g>
</svg>