<svg width="64" height="64" viewBox="0 0 64 64" fill="none" xmlns="http://www.w3.org/2000/svg">
  <defs>
    <linearGradient id="logoGradient" x1="0%" y1="0%" x2="100%" y2="100%">
      <stop offset="0%" style="stop-color:#0066ff;stop-opacity:1" />
      <stop offset="100%" style="stop-color:#6366f1;stop-opacity:1" />
    </linearGradient>
  </defs>
  
  <!-- Background circle -->
  <circle cx="32" cy="32" r="28" fill="url(#logoGradient)"/>
  
  <!-- AI Brain/Circuit pattern -->
  <g fill="white" fill-opacity="0.9">
    <!-- Central node -->
    <circle cx="32" cy="32" r="3" />
    
    <!-- Neural network connections -->
    <line x1="32" y1="32" x2="20" y2="20" stroke="white" stroke-width="1.5" stroke-opacity="0.7"/>
    <line x1="32" y1="32" x2="44" y2="20" stroke="white" stroke-width="1.5" stroke-opacity="0.7"/>
    <line x1="32" y1="32" x2="20" y2="44" stroke="white" stroke-width="1.5" stroke-opacity="0.7"/>
    <line x1="32" y1="32" x2="44" y2="44" stroke="white" stroke-width="1.5" stroke-opacity="0.7"/>
    <line x1="32" y1="32" x2="32" y2="16" stroke="white" stroke-width="1.5" stroke-opacity="0.7"/>
    <line x1="32" y1="32" x2="32" y2="48" stroke="white" stroke-width="1.5" stroke-opacity="0.7"/>
    <line x1="32" y1="32" x2="16" y2="32" stroke="white" stroke-width="1.5" stroke-opacity="0.7"/>
    <line x1="32" y1="32" x2="48" y2="32" stroke="white" stroke-width="1.5" stroke-opacity="0.7"/>
    
    <!-- Outer nodes -->
    <circle cx="20" cy="20" r="2" />
    <circle cx="44" cy="20" r="2" />
    <circle cx="20" cy="44" r="2" />
    <circle cx="44" cy="44" r="2" />
    <circle cx="32" cy="16" r="2" />
    <circle cx="32" cy="48" r="2" />
    <circle cx="16" cy="32" r="2" />
    <circle cx="48" cy="32" r="2" />
    
    <!-- Additional smaller nodes -->
    <circle cx="26" cy="26" r="1" fill-opacity="0.6"/>
    <circle cx="38" cy="26" r="1" fill-opacity="0.6"/>
    <circle cx="26" cy="38" r="1" fill-opacity="0.6"/>
    <circle cx="38" cy="38" r="1" fill-opacity="0.6"/>
  </g>
</svg>